<svg xmlns="http://www.w3.org/2000/svg" width="96" height="96" viewBox="0 0 96 96" role="img" aria-labelledby="title desc">
  <title id="title">WuWa Banners brand mark</title>
  <desc id="desc">A clean banner icon for a wiki-style tracking site.</desc>
  <defs>
    <linearGradient id="bg" x1="0" y1="0" x2="1" y2="1">
      <stop offset="0%" stop-color="#0d5f73"/>
      <stop offset="100%" stop-color="#214b88"/>
    </linearGradient>
  </defs>
  <rect width="96" height="96" rx="28" fill="url(#bg)"/>
  <path d="M28 20c3.2 0 5.5 2.3 5.5 5.8V70c0 3.4-2.3 5.8-5.5 5.8S22.5 73.4 22.5 70V25.8c0-3.5 2.3-5.8 5.5-5.8Z" fill="#dff5f1"/>
  <path d="M38 26c10.6-1.8 21.2 1.3 33 9.5-11.4 10.5-22.4 14.7-33 12.7V26Z" fill="#ffffff"/>
  <path d="M38 51.5c8.5-.3 16.5-3.2 24-8.6l0 9.6c-7.5 5-15.5 7.5-24 7.2V51.5Z" fill="#dff5f1"/>
  <circle cx="62" cy="62" r="10" fill="#9ed6df"/>
  <path d="M66.3 56.9a8.4 8.4 0 1 0 0 10.2c-1.1.7-2.5 1.1-4 1.1-4 0-7.2-3.2-7.2-7.2s3.2-7.2 7.2-7.2c1.5 0 2.9.4 4 1.1Z" fill="#214b88"/>
</svg>
