<svg width="1200" height="520" viewBox="0 0 1200 520" fill="none" xmlns="http://www.w3.org/2000/svg">
  <rect width="1200" height="520" rx="36" fill="url(#paint0_linear)"/>
  <rect x="16" y="16" width="1168" height="488" rx="24" stroke="url(#paint1_linear)" stroke-opacity="0.34" stroke-width="2"/>
  <ellipse cx="972" cy="128" rx="244" ry="132" fill="url(#paint2_radial)"/>
  <path d="M727 319L816 242L922 272L968 365L931 447L821 478L743 419L707 348L727 319Z" fill="url(#paint3_linear)"/>
  <g opacity="0.94">
    <rect x="110" y="112" width="256" height="302" rx="28" fill="url(#paint4_linear)"/>
    <rect x="110" y="112" width="256" height="302" rx="28" stroke="#7EE7ED" stroke-opacity="0.22" stroke-width="1.5"/>
    <rect x="142" y="150" width="98" height="12" rx="6" fill="#67D5DC"/>
    <rect x="142" y="179" width="172" height="16" rx="8" fill="#EEF7FF"/>
    <rect x="142" y="216" width="144" height="12" rx="6" fill="#A8BCD4" fill-opacity="0.72"/>
    <rect x="142" y="246" width="188" height="12" rx="6" fill="#A8BCD4" fill-opacity="0.5"/>
    <rect x="142" y="294" width="86" height="46" rx="14" fill="#152334"/>
    <rect x="240" y="294" width="96" height="46" rx="14" fill="#1B2C40"/>
    <path d="M463 171L501 215L570 225L519 264L532 331L463 296L394 331L407 264L356 225L425 215L463 171Z" fill="#EEF7FF" fill-opacity="0.92"/>
    <path d="M463 157L506 205L579 216L525 260L538 332L463 296L388 332L401 260L347 216L420 205L463 157Z" stroke="#67D5DC" stroke-opacity="0.34" stroke-width="1.5"/>
  </g>
  <defs>
    <linearGradient id="paint0_linear" x1="78" y1="35" x2="1115" y2="469" gradientUnits="userSpaceOnUse">
      <stop stop-color="#101A28"/>
      <stop offset="1" stop-color="#0A1118"/>
    </linearGradient>
    <linearGradient id="paint1_linear" x1="79" y1="47" x2="1124" y2="469" gradientUnits="userSpaceOnUse">
      <stop stop-color="#7EE7ED"/>
      <stop offset="0.5" stop-color="#9DB5FF"/>
      <stop offset="1" stop-color="#FFFFFF" stop-opacity="0.15"/>
    </linearGradient>
    <radialGradient id="paint2_radial" cx="0" cy="0" r="1" gradientUnits="userSpaceOnUse" gradientTransform="translate(972 128) rotate(90) scale(132 244)">
      <stop stop-color="#7BEAF0" stop-opacity="0.4"/>
      <stop offset="1" stop-color="#0A1118" stop-opacity="0"/>
    </radialGradient>
    <linearGradient id="paint3_linear" x1="707" y1="242" x2="968" y2="478" gradientUnits="userSpaceOnUse">
      <stop stop-color="#E3FBFF" stop-opacity="0.28"/>
      <stop offset="1" stop-color="#67D5DC" stop-opacity="0.1"/>
    </linearGradient>
    <linearGradient id="paint4_linear" x1="110" y1="112" x2="366" y2="414" gradientUnits="userSpaceOnUse">
      <stop stop-color="#162334"/>
      <stop offset="1" stop-color="#122031"/>
    </linearGradient>
  </defs>
</svg>
