<svg width="1200" height="520" viewBox="0 0 1200 520" fill="none" xmlns="http://www.w3.org/2000/svg">
  <rect width="1200" height="520" rx="36" fill="url(#paint0_linear)"/>
  <rect x="16" y="16" width="1168" height="488" rx="24" stroke="url(#paint1_linear)" stroke-opacity="0.34" stroke-width="2"/>
  <ellipse cx="980" cy="126" rx="230" ry="136" fill="url(#paint2_radial)"/>
  <path d="M730 314L810 246L913 274L958 364L920 450L817 474L741 416L708 346L730 314Z" fill="url(#paint3_linear)"/>
  <g opacity="0.9">
    <path d="M148 382C241 301 340 246 454 218C566 191 681 189 810 207" stroke="#EAF8FF" stroke-opacity="0.28" stroke-width="2"/>
    <path d="M149 384C255 353 347 325 456 313C589 299 702 316 813 356" stroke="#67D5DC" stroke-opacity="0.32" stroke-width="1.5"/>
    <circle cx="252" cy="291" r="10" fill="#67D5DC"/>
    <circle cx="428" cy="236" r="11" fill="#EEF7FF"/>
    <circle cx="606" cy="225" r="10" fill="#93AFFF"/>
    <circle cx="778" cy="260" r="11" fill="#67D5DC"/>
    <rect x="122" y="108" width="222" height="78" rx="22" fill="url(#paint4_linear)"/>
    <rect x="151" y="135" width="88" height="12" rx="6" fill="#67D5DC"/>
    <rect x="151" y="161" width="154" height="10" rx="5" fill="#EAF8FF"/>
  </g>
  <defs>
    <linearGradient id="paint0_linear" x1="76" y1="34" x2="1115" y2="470" gradientUnits="userSpaceOnUse">
      <stop stop-color="#101A28"/>
      <stop offset="1" stop-color="#0A1118"/>
    </linearGradient>
    <linearGradient id="paint1_linear" x1="76" y1="46" x2="1122" y2="469" gradientUnits="userSpaceOnUse">
      <stop stop-color="#7EE7ED"/>
      <stop offset="0.48" stop-color="#9DB5FF"/>
      <stop offset="1" stop-color="#FFFFFF" stop-opacity="0.14"/>
    </linearGradient>
    <radialGradient id="paint2_radial" cx="0" cy="0" r="1" gradientUnits="userSpaceOnUse" gradientTransform="translate(980 126) rotate(90) scale(136 230)">
      <stop stop-color="#7AE8EF" stop-opacity="0.42"/>
      <stop offset="1" stop-color="#0A1118" stop-opacity="0"/>
    </radialGradient>
    <linearGradient id="paint3_linear" x1="708" y1="246" x2="958" y2="474" gradientUnits="userSpaceOnUse">
      <stop stop-color="#E1FBFF" stop-opacity="0.28"/>
      <stop offset="1" stop-color="#67D5DC" stop-opacity="0.1"/>
    </linearGradient>
    <linearGradient id="paint4_linear" x1="122" y1="108" x2="344" y2="186" gradientUnits="userSpaceOnUse">
      <stop stop-color="#172638"/>
      <stop offset="1" stop-color="#132132"/>
    </linearGradient>
  </defs>
</svg>
