<svg width="1200" height="520" viewBox="0 0 1200 520" fill="none" xmlns="http://www.w3.org/2000/svg">
  <rect width="1200" height="520" rx="36" fill="url(#paint0_linear)"/>
  <rect x="16" y="16" width="1168" height="488" rx="24" stroke="url(#paint1_linear)" stroke-opacity="0.34" stroke-width="2"/>
  <ellipse cx="964" cy="122" rx="238" ry="134" fill="url(#paint2_radial)"/>
  <path d="M728 316L812 242L919 270L964 364L927 450L819 474L738 417L702 345L728 316Z" fill="url(#paint3_linear)"/>
  <g opacity="0.94">
    <path d="M151 362L251 296L355 318L397 410L350 468L241 478L164 432L151 362Z" fill="#142132"/>
    <path d="M151 362L251 296L355 318L397 410L350 468L241 478L164 432L151 362Z" stroke="#7EE7ED" stroke-opacity="0.22" stroke-width="1.5"/>
    <path d="M454 300L554 240L662 266L701 354L670 441L565 470L471 421L444 348L454 300Z" fill="#18283A"/>
    <path d="M454 300L554 240L662 266L701 354L670 441L565 470L471 421L444 348L454 300Z" stroke="#EAF8FF" stroke-opacity="0.18" stroke-width="1.5"/>
    <path d="M178 170L236 213L210 282H146L119 213L178 170Z" fill="#EEF7FF"/>
    <path d="M542 150L599 193L573 262H510L483 193L542 150Z" fill="#DDEBFF"/>
    <rect x="132" y="106" width="248" height="66" rx="22" fill="url(#paint4_linear)"/>
    <rect x="160" y="130" width="90" height="12" rx="6" fill="#67D5DC"/>
    <rect x="160" y="156" width="154" height="10" rx="5" fill="#EEF7FF"/>
  </g>
  <defs>
    <linearGradient id="paint0_linear" x1="77" y1="35" x2="1115" y2="469" gradientUnits="userSpaceOnUse">
      <stop stop-color="#101A28"/>
      <stop offset="1" stop-color="#0A1118"/>
    </linearGradient>
    <linearGradient id="paint1_linear" x1="79" y1="47" x2="1124" y2="469" gradientUnits="userSpaceOnUse">
      <stop stop-color="#7EE7ED"/>
      <stop offset="0.5" stop-color="#9DB5FF"/>
      <stop offset="1" stop-color="#FFFFFF" stop-opacity="0.15"/>
    </linearGradient>
    <radialGradient id="paint2_radial" cx="0" cy="0" r="1" gradientUnits="userSpaceOnUse" gradientTransform="translate(964 122) rotate(90) scale(134 238)">
      <stop stop-color="#7BEAF0" stop-opacity="0.42"/>
      <stop offset="1" stop-color="#0A1118" stop-opacity="0"/>
    </radialGradient>
    <linearGradient id="paint3_linear" x1="702" y1="242" x2="964" y2="474" gradientUnits="userSpaceOnUse">
      <stop stop-color="#E1FBFF" stop-opacity="0.28"/>
      <stop offset="1" stop-color="#67D5DC" stop-opacity="0.1"/>
    </linearGradient>
    <linearGradient id="paint4_linear" x1="132" y1="106" x2="380" y2="172" gradientUnits="userSpaceOnUse">
      <stop stop-color="#172638"/>
      <stop offset="1" stop-color="#132132"/>
    </linearGradient>
  </defs>
</svg>
